<svg width="21" height="22" viewBox="0 0 21 22" fill="none" xmlns="http://www.w3.org/2000/svg">
<path fill-rule="evenodd" clip-rule="evenodd" d="M15.8504 9.19565C15.8504 13.0376 12.7359 16.1522 8.89389 16.1522C5.05191 16.1522 1.93737 13.0376 1.93737 9.19565C1.93737 5.35367 5.05191 2.23913 8.89389 2.23913C12.7359 2.23913 15.8504 5.35367 15.8504 9.19565ZM14.1885 16.0941C12.7222 17.2212 10.8863 17.8913 8.89389 17.8913C4.09142 17.8913 0.198242 13.9981 0.198242 9.19565C0.198242 4.39318 4.09142 0.5 8.89389 0.5C13.6964 0.5 17.5895 4.39318 17.5895 9.19565C17.5895 11.3792 16.7847 13.3748 15.4555 14.902L20.3813 19.8889L19.144 21.1111L14.1885 16.0941Z" fill="white"/>
</svg>
